<?xml version="1.0" standalone="no"?>
<!DOCTYPE svg PUBLIC "-//W3C//DTD SVG 20010904//EN"
 "http://www.w3.org/TR/2001/REC-SVG-20010904/DTD/svg10.dtd">
<svg version="1.0" xmlns="http://www.w3.org/2000/svg"
 width="219.000000pt" height="475.000000pt" viewBox="0 0 219.000000 475.000000"
 preserveAspectRatio="xMidYMid meet">
<g transform="translate(0.000000,475.000000) scale(0.100000,-0.100000)"
fill="#000000" stroke="none">
<path d="M865 4740 c-33 -5 -78 -16 -100 -25 -22 -8 -72 -21 -111 -29 -170
-36 -255 -92 -352 -234 -84 -122 -119 -204 -132 -305 -6 -46 -10 -306 -10
-604 l0 -523 -49 -24 c-26 -14 -62 -37 -80 -51 -26 -23 -31 -34 -31 -72 0 -37
3 -44 18 -39 90 26 134 37 136 34 2 -1 9 -262 15 -578 9 -437 9 -627 1 -790
-16 -289 -8 -950 13 -1040 36 -162 136 -324 229 -371 41 -21 140 -47 268 -70
120 -22 725 -19 852 4 207 38 247 54 321 131 59 61 130 203 145 291 32 176 34
225 28 625 -3 223 -9 484 -12 580 -5 138 13 1209 20 1217 1 1 34 -6 73 -16 40
-10 74 -16 77 -13 13 13 5 71 -13 94 -11 13 -47 39 -80 57 l-61 32 0 507 c0
279 -5 549 -10 601 -12 107 -54 210 -133 321 -107 151 -163 189 -347 235 -52
13 -120 32 -150 41 -65 19 -426 29 -525 14z m475 -21 c53 -10 56 -13 88 -66
18 -31 31 -57 29 -60 -2 -2 -31 3 -63 12 -50 12 -214 34 -264 35 -10 0 -7 5 8
16 30 21 28 52 -4 64 -38 15 -69 12 -94 -8 -25 -20 -19 -49 14 -62 15 -5 -3
-10 -59 -15 -44 -4 -120 -15 -170 -25 -49 -9 -92 -16 -94 -14 -2 2 10 27 26
56 21 36 39 55 59 61 85 26 401 29 524 6z m-201 -23 c24 -29 -48 -48 -84 -23
-10 8 -15 19 -11 25 10 17 81 15 95 -2z m-410 -63 c-37 -68 -124 -153 -156
-153 -26 0 -98 -53 -179 -132 l-62 -60 9 46 c11 59 18 72 66 119 38 36 330
236 346 237 5 0 -6 -26 -24 -57z m882 -54 c119 -79 208 -155 220 -187 6 -15
13 -43 17 -62 l5 -34 -81 73 c-97 88 -129 111 -160 111 -34 0 -116 82 -152
152 l-32 61 48 -28 c27 -16 88 -54 135 -86z m-1021 30 c-52 -34 -127 -87 -166
-118 -38 -31 -84 -67 -101 -80 -38 -27 -51 -61 -63 -159 -7 -51 -20 -93 -45
-140 l-35 -67 0 47 c0 100 47 222 135 346 87 125 152 176 280 217 93 30 91 16
-5 -46z m1029 35 c102 -34 172 -89 245 -194 90 -127 126 -213 133 -307 l5 -78
-36 60 c-23 39 -36 73 -36 97 0 57 -20 141 -39 162 -9 10 -40 37 -69 60 -30
22 -72 56 -95 74 -23 19 -82 60 -132 93 -49 32 -82 59 -72 59 10 0 53 -12 96
-26z m-372 -34 c182 -24 229 -41 249 -89 67 -155 178 -559 209 -757 l6 -40
-103 17 c-301 51 -811 47 -1094 -10 l-40 -8 7 41 c41 239 150 629 212 756 19
38 29 47 67 58 122 36 345 50 487 32z m-588 -127 c-55 -129 -149 -462 -184
-653 -10 -52 -23 -100 -29 -106 -6 -6 -26 -17 -45 -23 -41 -13 -45 -9 -61 62
-7 34 -7 108 1 245 14 235 9 224 162 360 56 50 118 107 136 126 19 20 36 36
38 36 1 0 -7 -21 -18 -47z m1143 -230 c24 -25 28 -40 38 -138 18 -193 11 -387
-15 -422 -1 -2 -22 4 -46 12 l-45 15 -23 118 c-35 175 -87 371 -137 517 -25
72 -48 139 -51 150 -6 17 199 -167 279 -252z m-1330 110 c-113 -105 -135 -135
-175 -233 l-26 -65 -1 70 c0 83 15 193 31 229 14 29 46 47 34 19 -10 -25 -19
-123 -11 -123 4 0 37 31 75 69 71 71 146 131 165 131 6 0 -36 -44 -92 -97z
m1225 48 c32 -27 80 -72 108 -100 27 -28 53 -51 58 -51 11 0 -2 108 -16 135
-8 17 -6 17 16 -4 31 -29 44 -81 52 -221 l6 -105 -38 85 c-31 70 -51 99 -113
160 -41 42 -95 93 -119 113 -27 23 -38 37 -28 37 9 0 42 -22 74 -49z m-1368
-326 c-11 -128 -11 -319 1 -350 5 -14 12 -108 14 -208 2 -100 7 -198 11 -218
6 -31 4 -37 -13 -41 -19 -5 -21 0 -27 51 -12 108 -28 107 -46 -4 -7 -41 -15
-75 -18 -75 -4 0 -21 9 -39 20 l-32 20 0 362 1 363 34 65 34 65 1 -37 c0 -40
8 -68 20 -68 4 0 15 21 24 48 31 83 39 103 41 100 1 -2 -1 -43 -6 -93z m1555
15 c13 -35 28 -66 34 -68 5 -1 14 19 19 45 l9 48 32 -65 32 -65 0 -357 0 -356
-34 -21 c-18 -12 -36 -21 -38 -21 -3 0 -11 34 -17 75 -18 110 -36 112 -47 7
-6 -53 -9 -59 -26 -54 -18 4 -19 11 -14 52 4 26 6 116 7 200 0 103 5 171 15
209 12 44 14 91 9 216 -3 88 -8 176 -11 195 -8 48 1 36 30 -40z m-359 -364
c158 -22 201 -31 288 -62 14 -5 17 -19 17 -75 0 -38 -4 -69 -8 -69 -5 0 -35 9
-68 20 -143 50 -212 61 -437 73 -169 9 -275 9 -443 0 -225 -11 -294 -23 -438
-73 -33 -11 -63 -20 -68 -20 -4 0 -8 31 -8 69 0 74 -2 72 65 92 72 23 277 53
425 63 122 8 570 -4 675 -18z m-10 -146 c39 -5 125 -26 193 -47 l122 -37 0
-40 c-1 -66 -93 -806 -106 -850 -5 -15 -12 -17 -43 -12 -188 33 -290 40 -591
40 -310 0 -328 -2 -586 -40 l-41 -6 -7 53 c-4 30 -11 86 -16 124 -5 39 -14
106 -20 150 -32 240 -51 400 -56 486 l-7 96 85 26 c150 47 205 58 340 67 158
10 634 4 733 -10z m-1210 -369 c-2 -1 -8 0 -14 4 -13 7 -14 48 -4 96 7 31 8
28 14 -31 4 -36 5 -67 4 -69z m1594 8 c-20 -12 -22 -6 -13 63 l8 63 9 -59 c8
-46 7 -60 -4 -67z m-1678 4 c27 -16 29 -21 29 -81 0 -72 -20 -122 -50 -122
-19 0 -20 7 -20 110 0 61 3 110 6 110 3 0 19 -8 35 -17z m147 -50 c6 -38 15
-106 21 -153 6 -47 25 -188 42 -315 47 -349 47 -349 63 -515 56 -575 61 -729
47 -1419 -6 -338 -13 -617 -15 -619 -2 -2 -31 10 -64 27 -63 32 -62 30 -87
142 -25 115 -38 240 -40 374 -1 72 -6 155 -10 186 -6 49 -5 57 11 63 23 9 29
1 43 -64 6 -30 16 -62 21 -70 27 -43 38 32 66 459 15 238 15 274 -1 580 -23
439 -32 540 -100 1056 -38 287 -41 335 -22 335 11 0 18 -18 25 -67z m1486 58
c6 -9 -2 -99 -23 -266 -103 -826 -114 -952 -114 -1400 -1 -308 5 -415 34 -665
10 -79 21 -112 34 -98 6 5 31 99 37 135 3 21 4 21 25 5 21 -17 21 -20 12 -200
-11 -246 -52 -515 -81 -534 -7 -5 -38 -22 -69 -38 l-56 -29 -7 657 c-4 361 -5
707 -2 767 20 355 57 745 96 1015 27 182 70 520 77 598 4 41 10 62 19 62 7 0
15 -4 18 -9z m156 -101 c0 -103 -1 -110 -20 -110 -30 0 -47 38 -52 115 -5 70
-5 70 26 87 17 9 34 17 39 17 4 1 7 -48 7 -109z m-1708 53 c10 -9 18 -30 18
-48 0 -17 4 -56 9 -86 5 -30 12 -80 15 -112 l6 -57 -40 26 c-31 21 -39 31 -34
46 5 17 3 19 -16 13 -15 -5 -20 -4 -16 4 4 6 3 19 -3 28 -7 13 -4 25 12 47 17
25 21 42 19 93 -3 67 1 73 30 46z m1616 -46 c-3 -75 27 -137 67 -137 30 0 136
-54 163 -83 11 -12 23 -34 27 -48 l6 -26 -93 24 c-101 27 -118 36 -118 63 0 9
-11 22 -25 28 -34 16 -37 15 -31 -6 5 -14 -4 -25 -34 -45 l-40 -26 0 30 c0 17
4 60 10 97 5 37 12 88 15 114 6 46 25 78 46 78 6 0 9 -26 7 -63z m-1694 -174
c-11 -63 -18 -68 -118 -95 l-96 -25 0 22 c0 12 12 33 28 48 39 38 132 87 165
87 27 0 28 -1 21 -37z m21 -210 c0 -98 1 -286 3 -418 3 -227 2 -240 -15 -237
-44 8 -44 12 -50 399 l-6 370 21 5 c12 4 26 18 32 32 5 14 11 26 12 26 2 0 3
-80 3 -177z m1742 121 l22 -6 -6 -371 c-4 -256 -9 -376 -17 -383 -6 -7 -22
-15 -35 -19 l-24 -7 6 92 c4 51 7 242 8 424 1 251 4 324 12 303 6 -15 21 -30
34 -33z m-1656 -5 c22 -15 27 -29 33 -81 3 -35 11 -99 16 -143 32 -257 66
-623 58 -630 -7 -7 -115 38 -143 61 l-24 19 -7 409 -7 408 24 -12 c13 -7 36
-21 50 -31z m1589 -326 c0 -197 -3 -382 -7 -412 l-6 -54 -73 -33 c-40 -19 -76
-34 -80 -34 -11 0 15 343 41 540 3 19 12 94 20 165 15 126 17 131 48 157 18
15 38 28 45 28 9 0 12 -78 12 -357z m-481 62 c73 -7 167 -19 208 -26 73 -12
75 -13 70 -38 -21 -106 -68 -585 -88 -903 l-12 -188 -522 0 -522 0 -7 31 c-3
17 -6 59 -6 93 0 126 -48 668 -80 901 -5 39 -9 75 -10 81 0 12 136 35 305 53
133 14 518 12 664 -4z m-1179 -599 c0 -97 32 -530 51 -681 14 -114 38 -287 45
-322 5 -24 2 -31 -21 -41 -35 -16 -107 -15 -131 2 -21 16 -21 24 -13 802 l4
321 33 -10 c31 -10 32 -11 32 -71z m1735 -183 c1 -148 3 -398 5 -556 6 -331 9
-317 -84 -317 -80 1 -88 13 -76 101 41 283 57 440 76 743 l17 273 26 11 c14 5
28 10 31 11 3 1 5 -119 5 -266z m-1603 182 l47 -17 7 -67 c8 -76 12 -637 4
-645 -3 -2 -30 3 -60 13 -44 15 -55 23 -62 46 -10 38 -36 372 -44 568 l-7 158
34 -19 c19 -11 55 -27 81 -37z m1509 -169 c-15 -240 -38 -513 -45 -525 -8 -12
-107 -43 -114 -36 -11 11 -15 287 -7 502 l7 203 82 38 c44 21 83 34 85 29 2
-6 -2 -100 -8 -211z m-281 -590 l0 -183 -525 0 -525 0 0 183 0 184 525 0 525
0 0 -184z m-1172 -12 c5 -32 -21 -47 -68 -39 -22 4 -40 12 -40 20 0 7 -3 26
-6 43 l-6 31 58 -18 c44 -13 60 -22 62 -37z m1400 9 c-3 -35 -6 -39 -40 -47
-41 -10 -68 3 -68 35 0 13 14 22 48 32 26 8 51 15 55 16 5 1 7 -16 5 -36z
m-1437 -73 c28 0 29 -2 29 -45 0 -34 -8 -55 -32 -90 l-33 -46 -7 33 c-4 18
-10 62 -14 97 -6 58 -5 64 10 58 10 -4 31 -7 47 -7z m1425 -37 c-4 -27 -9 -67
-13 -90 -3 -24 -9 -43 -13 -43 -4 0 -19 17 -34 38 -19 28 -26 51 -26 84 0 47
0 47 38 51 20 2 41 4 46 5 4 1 5 -19 2 -45z m-218 -97 c2 -3 7 -191 10 -419
l5 -413 -79 -18 c-276 -61 -661 -60 -924 2 l-75 17 3 395 c2 217 6 405 9 417
5 21 11 23 127 26 158 5 917 -1 924 -7z m-1194 -88 c-9 -110 -18 -124 -34 -50
-12 57 -11 63 10 96 12 20 24 36 27 36 2 0 1 -37 -3 -82z m1375 -44 c-7 -30
-15 -57 -19 -59 -7 -4 -20 100 -20 160 l0 30 26 -38 c24 -36 25 -40 13 -93z
m208 -174 c-7 -217 -23 -322 -55 -367 -22 -32 -132 -136 -137 -131 -2 2 1 23
6 48 36 187 59 389 59 533 l0 117 38 0 c20 0 48 6 62 13 21 11 26 11 29 -3 2
-8 1 -103 -2 -210z m-1749 202 c39 -4 42 -6 42 -33 0 -27 -3 -29 -39 -29 -42
0 -55 -10 -65 -53 -8 -32 10 -146 26 -164 6 -7 30 -13 54 -13 l44 0 0 -38 c0
-60 40 -314 55 -354 4 -10 4 -18 0 -18 -13 0 -147 135 -156 157 -22 59 -39
223 -39 389 0 164 1 176 18 168 9 -4 36 -9 60 -12z m50 -94 c7 -7 12 -44 12
-94 0 -75 -2 -83 -21 -89 -11 -4 -31 -4 -44 -1 -20 5 -25 15 -30 54 -7 54 -9
76 -7 115 2 24 6 27 40 27 21 0 43 -5 50 -12z m1605 -579 c-67 -123 -147 -182
-283 -208 -36 -7 -84 -16 -106 -22 -80 -17 -425 -28 -617 -19 -336 16 -498 62
-574 162 -47 63 -87 127 -81 133 2 2 19 -11 38 -29 47 -44 125 -96 186 -124
35 -17 53 -32 61 -53 11 -29 12 -29 95 -29 45 0 137 -7 203 -15 141 -17 368
-19 475 -4 41 6 134 14 205 17 129 7 130 7 133 32 2 19 13 29 47 44 63 25 153
86 200 134 22 22 41 39 43 37 2 -2 -9 -27 -25 -56z m-1298 -89 c139 -33 248
-43 475 -44 228 0 332 9 475 44 57 14 65 12 65 -10 0 -24 -17 -33 -105 -55
-234 -58 -602 -60 -840 -6 -98 22 -130 36 -133 59 -4 25 4 26 63 12z m25 -78
l35 -10 -42 -1 c-47 -1 -73 6 -73 21 0 10 9 9 80 -10z m990 9 c0 -14 -27 -21
-73 -20 l-42 1 40 13 c49 16 75 18 75 6z"/>
<path d="M1731 4017 c-8 -10 -7 -14 2 -14 8 0 14 6 14 14 0 7 -1 13 -2 13 -2
0 -8 -6 -14 -13z"/>
<path d="M1900 3500 c-6 -11 -8 -20 -6 -20 3 0 10 9 16 20 6 11 8 20 6 20 -3
0 -10 -9 -16 -20z"/>
<path d="M457 3657 c-3 -8 1 -14 8 -14 7 0 11 6 8 14 -3 7 -6 13 -8 13 -2 0
-5 -6 -8 -13z"/>
<path d="M1720 3666 c0 -2 8 -10 18 -17 15 -13 16 -12 3 4 -13 16 -21 21 -21
13z"/>
<path d="M420 776 c0 -2 8 -10 18 -17 15 -13 16 -12 3 4 -13 16 -21 21 -21 13z"/>
<path d="M1763 475 c0 -8 4 -12 9 -9 5 3 6 10 3 15 -9 13 -12 11 -12 -6z"/>
<path d="M1784 2099 c-4 -7 -3 -9 4 -5 5 3 13 0 15 -6 4 -9 6 -10 6 -1 1 17
-16 25 -25 12z"/>
<path d="M540 2480 c6 -11 13 -20 16 -20 2 0 0 9 -6 20 -6 11 -13 20 -16 20
-2 0 0 -9 6 -20z"/>
<path d="M1889 1173 c-13 -16 -12 -17 4 -4 16 13 21 21 13 21 -2 0 -10 -8 -17
-17z"/>
<path d="M1071 1322 c-16 -30 -21 -85 -13 -142 7 -53 8 -55 37 -55 l30 0 3 81
c3 87 -8 134 -32 134 -9 0 -20 -8 -25 -18z m43 -97 c0 -80 -4 -91 -29 -82 -18
8 -22 126 -4 159 20 36 34 3 33 -77z"/>
<path d="M1226 1142 c-3 -5 1 -9 9 -9 8 0 12 4 9 9 -3 4 -7 8 -9 8 -2 0 -6 -4
-9 -8z"/>
<path d="M886 1128 c3 -5 10 -6 15 -3 13 9 11 12 -6 12 -8 0 -12 -4 -9 -9z"/>
<path d="M1395 1011 c-3 -5 -2 -12 3 -15 5 -3 9 1 9 9 0 17 -3 19 -12 6z"/>
<path d="M326 52 c-3 -5 1 -9 9 -9 8 0 12 4 9 9 -3 4 -7 8 -9 8 -2 0 -6 -4 -9
-8z"/>
</g>
</svg>
